<?xml version="1.0"?>
<svg xmlns="http://www.w3.org/2000/svg" height="24px" viewBox="0 -77 512 512" width="24px"><path d="m102.398438 358.398438h-59.730469c-4.710938 0-8.535157-3.8125-8.535157-8.53125v-34.132813c0-4.71875 3.824219-8.535156 8.535157-8.535156h59.730469c4.710937 0 8.535156 3.816406 8.535156 8.535156v34.132813c0 4.71875-3.824219 8.53125-8.535156 8.53125zm-51.199219-17.066407h42.667969v-17.066406h-42.667969zm0 0" fill="#000000"/><path d="m469.332031 358.398438h-59.730469c-4.710937 0-8.535156-3.8125-8.535156-8.53125v-34.132813c0-4.71875 3.824219-8.535156 8.535156-8.535156h59.730469c4.710938 0 8.535157 3.816406 8.535157 8.535156v34.132813c0 4.71875-3.824219 8.53125-8.535157 8.53125zm-51.199219-17.066407h42.667969v-17.066406h-42.667969zm0 0" fill="#000000"/><path d="m435.199219 290.132812c-23.527344 0-42.664063-19.140624-42.664063-42.667968 0-23.523438 19.136719-42.664063 42.664063-42.664063 23.527343 0 42.667969 19.140625 42.667969 42.664063 0 23.527344-19.140626 42.667968-42.667969 42.667968zm0-68.265624c-14.113281 0-25.597657 11.484374-25.597657 25.597656 0 14.117187 11.484376 25.601562 25.597657 25.601562s25.601562-11.484375 25.601562-25.601562c0-14.113282-11.488281-25.597656-25.601562-25.597656zm0 0" fill="#000000"/><path d="m486.398438 324.265625h-460.796876c-14.117187 0-25.601562-11.484375-25.601562-25.597656v-273.066407c0-14.117187 11.484375-25.601562 25.601562-25.601562h460.796876c14.117187 0 25.601562 11.484375 25.601562 25.601562v273.066407c0 14.113281-11.484375 25.597656-25.601562 25.597656zm-460.796876-307.199219c-4.703124 0-8.535156 3.824219-8.535156 8.535156v273.066407c0 4.710937 3.832032 8.53125 8.535156 8.53125h460.796876c4.703124 0 8.535156-3.820313 8.535156-8.53125v-273.066407c0-4.710937-3.832032-8.535156-8.535156-8.535156zm0 0" fill="#000000"/><path d="m341.351562 290.132812h-273.101562c-18.816406 0-34.117188-15.308593-34.117188-34.117187v-187.722656c0-18.832031 15.328126-34.160157 34.160157-34.160157h273.015625c18.832031 0 34.15625 15.328126 34.15625 34.160157v187.722656c0 18.808594-15.296875 34.117187-34.113282 34.117187zm-273.058593-238.933593c-9.429688 0-17.09375 7.664062-17.09375 17.09375v187.722656c0 9.40625 7.648437 17.050781 17.050781 17.050781h273.109375c9.394531 0 17.039063-7.644531 17.039063-17.050781v-187.722656c0-9.429688-7.660157-17.09375-17.089844-17.09375zm0 0" fill="#000000"/><path d="m418.132812 187.734375h-17.066406c-4.710937 0-8.53125-3.816406-8.53125-8.535156s3.820313-8.53125 8.53125-8.53125h17.066406c4.710938 0 8.535157 3.8125 8.535157 8.53125s-3.824219 8.535156-8.535157 8.535156zm0 0" fill="#000000"/><path d="m469.332031 187.734375h-17.066406c-4.710937 0-8.53125-3.816406-8.53125-8.535156s3.820313-8.53125 8.53125-8.53125h17.066406c4.710938 0 8.535157 3.8125 8.535157 8.53125s-3.824219 8.535156-8.535157 8.535156zm0 0" fill="#000000"/><path d="m418.132812 153.601562h-17.066406c-4.710937 0-8.53125-3.816406-8.53125-8.535156s3.820313-8.53125 8.53125-8.53125h17.066406c4.710938 0 8.535157 3.8125 8.535157 8.53125s-3.824219 8.535156-8.535157 8.535156zm0 0" fill="#000000"/><path d="m469.332031 153.601562h-17.066406c-4.710937 0-8.53125-3.816406-8.53125-8.535156s3.820313-8.53125 8.53125-8.53125h17.066406c4.710938 0 8.535157 3.8125 8.535157 8.53125s-3.824219 8.535156-8.535157 8.535156zm0 0" fill="#000000"/><path d="m418.132812 119.464844h-17.066406c-4.710937 0-8.53125-3.8125-8.53125-8.53125s3.820313-8.535156 8.53125-8.535156h17.066406c4.710938 0 8.535157 3.816406 8.535157 8.535156s-3.824219 8.53125-8.535157 8.53125zm0 0" fill="#000000"/><path d="m469.332031 119.464844h-17.066406c-4.710937 0-8.53125-3.8125-8.53125-8.53125s3.820313-8.535156 8.53125-8.535156h17.066406c4.710938 0 8.535157 3.816406 8.535157 8.535156s-3.824219 8.53125-8.535157 8.53125zm0 0" fill="#000000"/><path d="m59.734375 358.398438h-51.199219c-4.710937 0-8.535156-3.8125-8.535156-8.53125s3.824219-8.535157 8.535156-8.535157h51.199219c4.710937 0 8.53125 3.816407 8.53125 8.535157s-3.820313 8.53125-8.53125 8.53125zm0 0" fill="#000000"/><path d="m503.464844 358.398438h-196.265625c-4.710938 0-8.53125-3.8125-8.53125-8.53125s3.820312-8.535157 8.53125-8.535157h196.265625c4.710937 0 8.535156 3.816407 8.535156 8.535157s-3.824219 8.53125-8.535156 8.53125zm0 0" fill="#000000"/><path d="m273.066406 358.398438h-34.132812c-4.710938 0-8.535156-3.8125-8.535156-8.53125s3.824218-8.535157 8.535156-8.535157h34.132812c4.710938 0 8.535156 3.816407 8.535156 8.535157s-3.824218 8.53125-8.535156 8.53125zm0 0" fill="#000000"/><path d="m204.800781 358.398438h-68.265625c-4.710937 0-8.535156-3.8125-8.535156-8.53125s3.824219-8.535157 8.535156-8.535157h68.265625c4.710938 0 8.53125 3.816407 8.53125 8.535157s-3.820312 8.53125-8.53125 8.53125zm0 0" fill="#000000"/><path d="m435.199219 256c-4.710938 0-8.53125-3.8125-8.53125-8.535156v-34.132813c0-4.71875 3.820312-8.53125 8.53125-8.53125 4.710937 0 8.535156 3.8125 8.535156 8.53125v34.132813c0 4.722656-3.824219 8.535156-8.535156 8.535156zm0 0" fill="#000000"/><path d="m469.332031 85.332031h-68.265625c-4.710937 0-8.53125-3.8125-8.53125-8.53125v-34.132812c0-4.71875 3.820313-8.535157 8.53125-8.535157h68.265625c4.710938 0 8.535157 3.816407 8.535157 8.535157v34.132812c0 4.71875-3.824219 8.53125-8.535157 8.53125zm-59.730469-17.066406h51.199219v-17.066406h-51.199219zm0 0" fill="#000000"/><path d="m341.351562 290.132812h-273.101562c-18.816406 0-34.117188-15.308593-34.117188-34.117187v-8.550781c0-4.71875 3.824219-8.53125 8.535157-8.53125h324.265625c4.710937 0 8.53125 3.8125 8.53125 8.53125v8.550781c0 18.808594-15.296875 34.117187-34.113282 34.117187zm-290.152343-34.132812v.015625c0 9.40625 7.648437 17.050781 17.050781 17.050781h273.109375c9.394531 0 17.039063-7.644531 17.039063-17.050781v-.015625zm0 0" fill="#000000"/><path d="m298.667969 256h-187.734375c-23.527344 0-42.667969-19.140625-42.667969-42.667969 0-4.71875 3.824219-8.53125 8.535156-8.53125h256c4.710938 0 8.53125 3.8125 8.53125 8.53125 0 23.527344-19.140625 42.667969-42.664062 42.667969zm-211.875-34.132812c3.523437 9.933593 13.011719 17.066406 24.140625 17.066406h187.734375c11.125 0 20.613281-7.132813 24.140625-17.066406zm0 0" fill="#000000"/><path d="m221.867188 221.867188h-34.132813c-51.753906 0-93.867187-42.113282-93.867187-93.867188 0-4.71875 3.824218-8.535156 8.53125-8.535156h204.800781c4.710937 0 8.535156 3.816406 8.535156 8.535156 0 51.753906-42.113281 93.867188-93.867187 93.867188zm-110.464844-85.332032c4.257812 38.347656 36.863281 68.265625 76.332031 68.265625h34.132813c39.464843 0 72.070312-29.917969 76.332031-68.265625zm0 0" fill="#000000"/><path d="m179.199219 136.535156c-2.542969 0-5.058594-1.136718-6.742188-3.296875-2.890625-3.726562-2.21875-9.078125 1.503907-11.972656l76.800781-59.730469c3.710937-2.910156 9.070312-2.238281 11.972656 1.492188 2.890625 3.730468 2.21875 9.078125-1.503906 11.972656l-76.800781 59.734375c-1.542969 1.21875-3.394532 1.800781-5.230469 1.800781zm0 0" fill="#000000"/><path d="m204.800781 136.535156c-3.386719 0-6.589843-2.023437-7.929687-5.371094-1.746094-4.375.375-9.34375 4.753906-11.089843l85.332031-34.136719c4.398438-1.738281 9.347657.386719 11.09375 4.761719 1.75 4.378906-.375 9.34375-4.75 11.09375l-85.335937 34.132812c-1.03125.417969-2.105469.609375-3.164063.609375zm0 0" fill="#000000"/></svg>
