<?xml version="1.0"?>
<svg xmlns="http://www.w3.org/2000/svg" height="24px" viewBox="-25 -19 639 639.99997" width="24px"><path d="m10.277344 51.640625 39.890625 458.777344v39.582031c.035156 27.601562 22.398437 49.964844 50 50h100c27.601562-.035156 49.964843-22.398438 50-50v-39.582031l39.886719-458.777344 9.816406-39.210937c.746094-2.988282.078125-6.15625-1.820313-8.582032-1.894531-2.425781-4.800781-3.847656-7.882812-3.847656h-280c-3.082031 0-5.984375 1.421875-7.886719 3.847656-1.894531 2.425782-2.5625 5.59375-1.816406 8.582032zm230.292968 338.359375h-180.800781l-5.210937-60h191.21875zm-1.738281 20-7.832031 90h-161.660156l-7.832032-90zm-123.664062 110h70v10c0 5.523438-4.476563 10-10 10h-50c-5.523438 0-10-4.476562-10-10zm115 30c0 16.566406-13.433594 30-30 30h-100c-16.566407 0-30-13.433594-30-30v-30h25v10c0 16.566406 13.433593 30 30 30h50c16.566406 0 30-13.433594 30-30v-10h25zm17.347656-240h-194.695313l-21.742187-250h238.183594zm29.839844-290-5 20h-244.378907l-5-20zm0 0" fill="#000000"/><path d="m380.167969 600h140c16.566406 0 30-13.433594 30-30v-380c-.023438-19.859375-11.800781-37.816406-30-45.761719v-34.238281c0-5.523438-4.476563-10-10-10h-30v-40h100c4.042969 0 7.691406-2.4375 9.238281-6.171875s.6875-8.039063-2.167969-10.898437l-20-20c-1.527343-1.527344-3.511719-2.519532-5.648437-2.832032l-140-19.9999998c-.472656-.0625-.949219-.0976562-1.421875-.0976562h-40c-5.523438 0-10 4.476562-10 10v40c0 5.523438 4.476562 10 10 10h40v40h-30c-5.523438 0-10 4.476562-10 10v34.238281c-18.199219 7.945313-29.976563 25.902344-30 45.761719v380c0 16.566406 13.433593 30 30 30zm150-360h-160v-20h160zm0 220h-160v-200h160zm-10 120h-140c-5.523438 0-10-4.476562-10-10v-90h160v90c0 5.523438-4.476563 10-10 10zm-130-560h29.292969l135.996093 19.429688.570313.570312h-165.859375zm50 40h20v40h-20zm-40 60h100v20h-100zm0 40h100c16.566406 0 30 13.433594 30 30v10h-160v-10c0-16.566406 13.433593-30 30-30zm0 0" fill="#000000"/><path d="m110.167969 210c27.601562-.035156 49.964843-22.398438 50-50 0-24.476562-35.25-67.941406-42.320313-76.410156-1.960937-2.175782-4.753906-3.410156-7.679687-3.410156-2.929688 0-5.71875 1.234374-7.679688 3.410156-7.070312 8.46875-42.320312 51.933594-42.320312 76.410156.035156 27.601562 22.398437 49.964844 50 50zm0-104c14.3125 18.65625 30 43.21875 30 54 0 16.566406-13.433594 30-30 30-16.566407 0-30-13.433594-30-30 0-10.726562 15.6875-35.289062 30-54zm0 0" fill="#000000"/><path d="m190.167969 290c22.089843 0 40-17.910156 40-40 0-18.742188-26.460938-58-31.773438-65.679688-1.960937-2.558593-5.003906-4.058593-8.226562-4.058593-3.222657 0-6.265625 1.5-8.230469 4.058593-5.308594 7.679688-31.769531 46.9375-31.769531 65.679688 0 22.089844 17.910156 40 40 40zm0-81.792969c10.667969 17.003907 20 35.160157 20 41.792969 0 11.042969-8.953125 20-20 20-11.042969 0-20-8.957031-20-20 0-6.621094 9.339843-24.742188 20-41.792969zm0 0" fill="#000000"/><path d="m450.167969 440c33.617187-.050781 60.859375-27.289062 60.910156-60.910156 0-30.847656-47.789063-89.003906-53.230469-95.5-1.960937-2.175782-4.753906-3.410156-7.679687-3.410156-2.929688 0-5.71875 1.234374-7.679688 3.410156-5.449219 6.53125-53.226562 64.652344-53.226562 95.5.046875 33.621094 27.289062 60.859375 60.90625 60.910156zm0-134c18.253906 23.417969 40.910156 57.597656 40.910156 73.140625 0 22.59375-18.316406 40.90625-40.910156 40.90625s-40.90625-18.3125-40.90625-40.90625c0-15.589844 22.65625-49.769531 40.90625-73.140625zm0 0" fill="#000000"/><path d="m90.167969 370h120c5.523437 0 10-4.476562 10-10s-4.476563-10-10-10h-120c-5.523438 0-10 4.476562-10 10s4.476562 10 10 10zm0 0" fill="#000000"/><path d="m450.167969 540h-40v-30c0-5.523438-4.476563-10-10-10-5.523438 0-10 4.476562-10 10v40c0 5.523438 4.476562 10 10 10h50c5.523437 0 10-4.476562 10-10s-4.476563-10-10-10zm0 0" fill="#000000"/><path d="m500.167969 540h-10c-5.523438 0-10 4.476562-10 10s4.476562 10 10 10h10c5.523437 0 10-4.476562 10-10s-4.476563-10-10-10zm0 0" fill="#000000"/><path d="m197.007812 479.492188c5.242188 1.738281 10.894532-1.09375 12.636719-6.332032l10-30c1.75-5.246094-1.085937-10.914062-6.335937-12.664062-5.25-1.742188-10.914063 1.09375-12.660156 6.34375l-10 30c-.835938 2.519531-.636719 5.269531.554687 7.640625 1.191406 2.375 3.28125 4.175781 5.804687 5.011719zm0 0" fill="#000000"/></svg>
