<?xml version="1.0"?>
<svg xmlns="http://www.w3.org/2000/svg" height="24px" viewBox="-20 -20 640 640" width="24px"><path d="m540 0h-380c-33.125.0351562-59.964844 26.875-60 60h-40v-50c0-5.523438-4.476562-10-10-10h-40c-5.523438 0-10 4.476562-10 10v140c0 5.523438 4.476562 10 10 10h40c5.523438 0 10-4.476562 10-10v-30h40v390c0 5.523438 4.476562 10 10 10h90v70c0 5.523438 4.476562 10 10 10h380c5.523438 0 10-4.476562 10-10v-540c0-25.230469-29.722656-50-60-50zm-320 397.230469 55 31.449219c2.898438 1.664062 6.441406 1.757812 9.429688.269531l75.210937-37.613281 65.359375 37.34375c2.898438 1.664062 6.441406 1.757812 9.429688.269531l75.570312-37.769531 70 35v37.640624l-65.53125-32.769531c-2.8125-1.40625-6.125-1.40625-8.9375 0l-75.210938 37.613281-65.320312-37.34375c-2.898438-1.664062-6.441406-1.757812-9.429688-.269531l-75.25 37.613281-60.320312-34.476562zm320-377.230469c18.691406 0 40 16 40 30v353.820312l-65.582031-32.820312c-2.8125-1.40625-6.121094-1.40625-8.941407 0l-75.238281 37.609375-65.238281-37.289063c-2.90625-1.652343-6.4375-1.75-9.429688-.269531l-75.21875 37.613281-60.351562-34.464843v-314.199219c.007812-14.765625-5.445312-29.015625-15.308594-40zm-380 0c22.089844 0 40 17.910156 40 40h-80c0-22.089844 17.910156-40 40-40zm-120 120h-20v-120h20zm20-60h140v20h-140zm140 40v193.835938l-80-40v-153.835938zm-80 176.179688 80 40v37.628906l-80-40zm0 203.820312v-143.820312l80 40v103.820312zm460 80h-360v-20h10c5.523438 0 10-4.476562 10-10s-4.476562-10-10-10h-10v-82.777344l55.085938 31.457032c2.902343 1.664062 6.441406 1.757812 9.4375.269531l75.238281-37.613281 65.238281 37.34375c2.898438 1.664062 6.441406 1.757812 9.429688.269531l75.570312-37.769531 70 35v53.820312h-10c-5.523438 0-10 4.476562-10 10s4.476562 10 10 10h10zm0 0" fill="#000000"/><path d="m330 190c27.613281 0 50-22.386719 50-50s-22.386719-50-50-50-50 22.386719-50 50c.035156 27.601562 22.398438 49.964844 50 50zm0-80c16.566406 0 30 13.433594 30 30s-13.433594 30-30 30-30-13.433594-30-30 13.433594-30 30-30zm0 0" fill="#000000"/><path d="m460 270c16.566406 0 30-13.433594 30-30s-13.433594-30-30-30-30 13.433594-30 30 13.433594 30 30 30zm0-40c5.523438 0 10 4.476562 10 10s-4.476562 10-10 10-10-4.476562-10-10 4.476562-10 10-10zm0 0" fill="#000000"/><path d="m320 340c22.089844 0 40-17.910156 40-40s-17.910156-40-40-40-40 17.910156-40 40 17.910156 40 40 40zm0-60c11.046875 0 20 8.953125 20 20s-8.953125 20-20 20-20-8.953125-20-20 8.953125-20 20-20zm0 0" fill="#000000"/><path d="m470 110c16.566406 0 30-13.433594 30-30s-13.433594-30-30-30-30 13.433594-30 30 13.433594 30 30 30zm0-40c5.523438 0 10 4.476562 10 10s-4.476562 10-10 10-10-4.476562-10-10 4.476562-10 10-10zm0 0" fill="#000000"/><path d="m280 540h-10c-5.523438 0-10 4.476562-10 10s4.476562 10 10 10h10c5.523438 0 10-4.476562 10-10s-4.476562-10-10-10zm0 0" fill="#000000"/><path d="m330 540h-10c-5.523438 0-10 4.476562-10 10s4.476562 10 10 10h10c5.523438 0 10-4.476562 10-10s-4.476562-10-10-10zm0 0" fill="#000000"/><path d="m380 540h-10c-5.523438 0-10 4.476562-10 10s4.476562 10 10 10h10c5.523438 0 10-4.476562 10-10s-4.476562-10-10-10zm0 0" fill="#000000"/><path d="m430 540h-10c-5.523438 0-10 4.476562-10 10s4.476562 10 10 10h10c5.523438 0 10-4.476562 10-10s-4.476562-10-10-10zm0 0" fill="#000000"/><path d="m480 540h-10c-5.523438 0-10 4.476562-10 10s4.476562 10 10 10h10c5.523438 0 10-4.476562 10-10s-4.476562-10-10-10zm0 0" fill="#000000"/><path d="m530 540h-10c-5.523438 0-10 4.476562-10 10s4.476562 10 10 10h10c5.523438 0 10-4.476562 10-10s-4.476562-10-10-10zm0 0" fill="#000000"/></svg>
